<svg xmlns="http://www.w3.org/2000/svg" width="960" height="680" viewBox="0 0 960 680"><defs><pattern id="grid" width="24" height="24" patternUnits="userSpaceOnUse"><path d="M24 0H0V24" fill="none" stroke="#bdc9bf" stroke-width=".6"/></pattern></defs><rect width="960" height="680" fill="#eeeede"/><rect x="24" y="24" width="912" height="632" fill="url(#grid)"/><g font-family="Microsoft YaHei,Noto Sans CJK SC,sans-serif"><text x="48" y="64" font-size="16" fill="#69796e" text-anchor="start">MCLARY / COLOR STUDIES</text><text x="48" y="116" font-size="36" fill="#25342f" text-anchor="start">先区分明暗，再添加色相</text><text x="48" y="156" font-size="19" fill="#69796e" text-anchor="start">相同的图形，改变明度差，边界清晰度也会改变。</text><rect x="60" y="218" width="400" height="260" rx="6" fill="#b7c7b3" stroke="none" stroke-width="2"/><circle cx="260" cy="345" r="73" fill="#9eaf98" stroke="none" stroke-width="3"/><text x="260" y="526" font-size="24" fill="#25342f" text-anchor="middle">明暗接近</text><rect x="500" y="218" width="400" height="260" rx="6" fill="#e6eadc" stroke="none" stroke-width="2"/><circle cx="700" cy="345" r="73" fill="#293f39" stroke="none" stroke-width="3"/><text x="700" y="526" font-size="24" fill="#25342f" text-anchor="middle">明暗分开</text><rect x="304" y="554" width="111" height="39" rx="6" fill="#ececdf" stroke="none" stroke-width="2"/><rect x="423" y="554" width="111" height="39" rx="6" fill="#a3aca0" stroke="none" stroke-width="2"/><rect x="542" y="554" width="111" height="39" rx="6" fill="#2a3d36" stroke="none" stroke-width="2"/><path d="M48 618L912 618" fill="none" stroke="#69796e" stroke-width="1" stroke-dasharray=""/><text x="48" y="649" font-size="15" fill="#69796e" text-anchor="start">学习示意 · 实际观感受设备、背景与观看环境影响</text><text x="912" y="649" font-size="15" fill="#69796e" text-anchor="end">COLOR / FIELD NOTES</text></g></svg>