<svg xmlns="http://www.w3.org/2000/svg" width="960" height="680" viewBox="0 0 960 680">
    <defs><pattern id="grid" width="24" height="24" patternUnits="userSpaceOnUse"><path d="M24 0H0V24" fill="none" stroke="#c8cabf" stroke-width=".6"/></pattern></defs>
    <rect width="960" height="680" fill="#eeece2"/><rect x="24" y="24" width="912" height="632" fill="url(#grid)"/>
    <g font-family="Microsoft YaHei, Noto Sans CJK SC, sans-serif"><text x="48" y="65" font-size="16" fill="#75786d" text-anchor="start">MCLARY / PHOTOGRAPHY NOTES</text><text x="48" y="117" font-size="36" fill="#292c2b" text-anchor="start">用取景框组织你的观察</text><text x="48" y="155" font-size="19" fill="#75786d" text-anchor="start">位置、线条、层次，是三种看见画面的方式。</text>
    <rect x="94" y="207" width="772" height="342" rx="2" fill="#dce5df" stroke="#656d68" stroke-width="3"/><path d="M94 429.3L287.0 309.6L480.0 422.46000000000004L711.6 326.7L866 395.1V549H94Z" fill="#aebeb0"/><path d="M94 480.6Q480.0 412.2 866 470.34000000000003V549H94Z" fill="#7b9688"/><path d="M351.3333333333333 207L351.3333333333333 549" fill="none" stroke="#f7f3e6" stroke-width="2" stroke-dasharray="8 6"/><path d="M94 321.0L866 321.0" fill="none" stroke="#f7f3e6" stroke-width="2" stroke-dasharray="8 6"/><path d="M608.6666666666666 207L608.6666666666666 549" fill="none" stroke="#f7f3e6" stroke-width="2" stroke-dasharray="8 6"/><path d="M94 435.0L866 435.0" fill="none" stroke="#f7f3e6" stroke-width="2" stroke-dasharray="8 6"/><circle cx="609" cy="360" r="21" fill="#b64438" stroke="#b64438" stroke-width="3"/><rect x="593" y="381" width="32" height="68" rx="7" fill="#b64438" stroke="#b64438" stroke-width="3"/><path d="M580 403L366 403" fill="none" stroke="#b64438" stroke-width="3" stroke-dasharray=""/><text x="370" y="380" font-size="21" fill="#b64438" text-anchor="start">留白与视线方向</text><text x="480" y="591" font-size="24" fill="#292c2b" text-anchor="middle">先有主体，再安排主体与环境的关系。</text><path d="M48 617L912 617" fill="none" stroke="#75786d" stroke-width="1" stroke-dasharray=""/><text x="48" y="647" font-size="15" fill="#75786d" text-anchor="start">概念示意 · 非器材规格或实拍效果</text><text x="912" y="647" font-size="15" fill="#75786d" text-anchor="end">FIELD GUIDE / 01</text></g></svg>