<svg xmlns="http://www.w3.org/2000/svg" viewBox="0 0 1000 700" role="img"><title>三个轴，三种主要运动</title><defs><pattern id="grid" width="40" height="40" patternUnits="userSpaceOnUse"><path d="M40 0H0V40" fill="none" stroke="#c9e0e8" opacity=".08"/></pattern><marker id="tip" markerWidth="8" markerHeight="8" refX="6" refY="3" orient="auto"><path d="M0 0L6 3L0 6" fill="none" stroke="#e5b174" stroke-width="1"/></marker><clipPath id="dial"><circle cx="365" cy="350" r="197"/></clipPath></defs><rect width="1000" height="700" fill="#21475f"/><rect width="1000" height="700" fill="url(#grid)"/><g font-family="'Microsoft YaHei',sans-serif"><text x="45" y="48" font-size="16" fill="#dfebec" >MCLARY / FLIGHT STUDIES</text><text x="955" y="48" font-size="16" fill="#e5b174" text-anchor="end">02 / CONTROL</text><path d="M45 70H955" fill="none" stroke="#7294a4" stroke-width="1" stroke-linecap="round" stroke-linejoin="round" /><g transform="translate(420 365) rotate(0) scale(1.6)"><path d="M0 -120Q17 -105 13 -30L119 18V36L13 7L10 76L40 100V110L0 97L-40 110V100L-10 76L-13 7L-119 36V18L-13 -30Q-17 -105 0 -120Z" fill="#e5ece5" stroke="#8eabb8" stroke-width="2"/><path d="M0 -72V66" stroke="#6b8797" stroke-width="3"/></g><path d="M420 545V132" fill="none" stroke="#e5b174" stroke-width="5" stroke-linecap="round" stroke-linejoin="round" marker-end="url(#tip)"/><path d="M186 365H666" fill="none" stroke="#e5b174" stroke-width="5" stroke-linecap="round" stroke-linejoin="round" marker-end="url(#tip)"/><path d="M296 493L546 251" fill="none" stroke="#8ebfc2" stroke-width="3" stroke-linecap="round" stroke-linejoin="round" stroke-dasharray="10 8"/><text x="460" y="151" font-size="23" fill="#dfebec" >纵轴 / 滚转</text><text x="658" y="349" font-size="23" fill="#dfebec" >横轴 / 俯仰</text><text x="610" y="459" font-size="23" fill="#9fcdcd" >垂直轴 / 偏航</text><path d="M596 446L539 416" fill="none" stroke="#9fcdcd" stroke-width="2" stroke-linecap="round" stroke-linejoin="round" /><circle cx="420" cy="365" r="17" fill="#21475f" stroke="#e5b174" stroke-width="3"/><circle cx="420" cy="365" r="5" fill="#e5b174"/><text x="80" y="579" font-size="20" fill="#b4cbd3" >俯视投影：圆点表示垂直轴朝向观察者。</text><path d="M45 634H955" fill="none" stroke="#7294a4" stroke-width="1" stroke-linecap="round" stroke-linejoin="round" /><text x="45" y="672" font-size="17" fill="#dfebec" >三个轴，三种主要运动</text><text x="955" y="672" font-size="15" fill="#b4cbd3" text-anchor="end">教学示意 · 非运行图表</text></g></svg>