<svg xmlns="http://www.w3.org/2000/svg" viewBox="0 0 1000 700" role="img"><title>围绕任务交叉检查：姿态与性能一起读</title><defs><pattern id="grid" width="40" height="40" patternUnits="userSpaceOnUse"><path d="M40 0H0V40" fill="none" stroke="#c9e0e8" opacity=".08"/></pattern><marker id="tip" markerWidth="8" markerHeight="8" refX="6" refY="3" orient="auto"><path d="M0 0L6 3L0 6" fill="none" stroke="#e5b174" stroke-width="1"/></marker><clipPath id="dial"><circle cx="365" cy="350" r="197"/></clipPath></defs><rect width="1000" height="700" fill="#21475f"/><rect width="1000" height="700" fill="url(#grid)"/><g font-family="'Microsoft YaHei',sans-serif"><text x="45" y="48" font-size="16" fill="#dfebec" >MCLARY / FLIGHT STUDIES</text><text x="955" y="48" font-size="16" fill="#e5b174" text-anchor="end">09 / SCAN</text><path d="M45 70H955" fill="none" stroke="#7294a4" stroke-width="1" stroke-linecap="round" stroke-linejoin="round" /><circle cx="215" cy="232" r="91" fill="#16364a" stroke="#769dad" stroke-width="3"/><path d="M167 239H263" fill="none" stroke="#7298aa" stroke-width="1" stroke-linecap="round" stroke-linejoin="round" /><text x="215" y="223" font-size="27" fill="#dfebec" text-anchor="middle">空速</text><text x="215" y="272" font-size="17" fill="#e5b174" text-anchor="middle">速度趋势</text><circle cx="500" cy="232" r="91" fill="#16364a" stroke="#769dad" stroke-width="3"/><path d="M452 239H548" fill="none" stroke="#7298aa" stroke-width="1" stroke-linecap="round" stroke-linejoin="round" /><text x="500" y="223" font-size="27" fill="#dfebec" text-anchor="middle">姿态</text><text x="500" y="272" font-size="17" fill="#e5b174" text-anchor="middle">俯仰 / 倾斜</text><circle cx="785" cy="232" r="91" fill="#16364a" stroke="#769dad" stroke-width="3"/><path d="M737 239H833" fill="none" stroke="#7298aa" stroke-width="1" stroke-linecap="round" stroke-linejoin="round" /><text x="785" y="223" font-size="27" fill="#dfebec" text-anchor="middle">高度</text><text x="785" y="272" font-size="17" fill="#e5b174" text-anchor="middle">高度变化</text><circle cx="215" cy="469" r="91" fill="#16364a" stroke="#769dad" stroke-width="3"/><path d="M167 476H263" fill="none" stroke="#7298aa" stroke-width="1" stroke-linecap="round" stroke-linejoin="round" /><text x="215" y="460" font-size="27" fill="#dfebec" text-anchor="middle">转弯协调</text><text x="215" y="509" font-size="17" fill="#e5b174" text-anchor="middle">转弯 / 侧滑</text><circle cx="500" cy="469" r="91" fill="#16364a" stroke="#769dad" stroke-width="3"/><path d="M452 476H548" fill="none" stroke="#7298aa" stroke-width="1" stroke-linecap="round" stroke-linejoin="round" /><text x="500" y="460" font-size="27" fill="#dfebec" text-anchor="middle">航向</text><text x="500" y="509" font-size="17" fill="#e5b174" text-anchor="middle">方向趋势</text><circle cx="785" cy="469" r="91" fill="#16364a" stroke="#769dad" stroke-width="3"/><path d="M737 476H833" fill="none" stroke="#7298aa" stroke-width="1" stroke-linecap="round" stroke-linejoin="round" /><text x="785" y="460" font-size="27" fill="#dfebec" text-anchor="middle">升降率</text><text x="785" y="509" font-size="17" fill="#e5b174" text-anchor="middle">垂直趋势</text><path d="M312 232H397M603 232H684M500 328V369" fill="none" stroke="#e5b174" stroke-width="3" stroke-linecap="round" stroke-linejoin="round" stroke-dasharray="6 7"/><text x="88" y="609" font-size="18" fill="#b4cbd3" >六项信息关系示意：实际显示布局、来源和扫描重点依机型与任务而变。</text><path d="M45 634H955" fill="none" stroke="#7294a4" stroke-width="1" stroke-linecap="round" stroke-linejoin="round" /><text x="45" y="672" font-size="17" fill="#dfebec" >围绕任务交叉检查：姿态与性能一起读</text><text x="955" y="672" font-size="15" fill="#b4cbd3" text-anchor="end">教学示意 · 非运行图表</text></g></svg>